<?xml version="1.0" encoding="utf-8"?>
<!-- Generator: Adobe Illustrator 20.1.0, SVG Export Plug-In . SVG Version: 6.00 Build 0)  -->
<svg version="1.1" id="Layer_1" xmlns="http://www.w3.org/2000/svg" xmlns:xlink="http://www.w3.org/1999/xlink" x="0px" y="0px"
	 viewBox="0 0 400 225" style="enable-background:new 0 0 400 225;" xml:space="preserve">
<style type="text/css">
	.st0{fill:#F67E4F;}
	.st1{fill:#FEE64C;}
	.st2{fill:#40F99B;}
	.st3{fill:#4C5B5C;}
	.st4{opacity:0.5;}
	.st5{fill:#FFFFFF;}
	.st6{fill:none;}
</style>
<title>personality quiz</title>
<g id="Layer_2">
	<g id="personality_quiz">
		<g>
			<path class="st0" d="M276.8,116.4c-13.7,5.3-31.2,11.3-45.3,6.3c0.2,0.9,19-2.2,20.3-6.8c-39.4-8.7-27.6-55.9,12.3-55.4
				C305.5,60.9,315,101.6,276.8,116.4z"/>
			<path class="st1" d="M217,75.4c-12.5,4.8-17.5,11.2-26.2,9.9c0.2,0.8,6.7-3.8,7.9-8.1c-47.3-13.2-29.5-53.2,6.7-52.8
				C243.1,24.9,251.7,62,217,75.4z"/>
			<path class="st2" d="M139.6,43c30.9-0.3,40,36.2,9.5,42.9c1,3.6,15.6,6,15.7,5.3c-11,3.9-24.5-0.7-35.1-4.8
				C100.2,74.9,107.5,43.3,139.6,43z"/>
			<circle class="st3" cx="188" cy="126" r="33.6"/>
			<path class="st3" d="M238.5,167.7l-8-8c0,0-4.9-5.5-7.8-5.6c-3.3-0.1-16.8,14.5-34.4,14.4c0,0,0.7,0-0.4,0l0,0c0,0,0.1,0,0,0
				s0,0,0,0h0c-17.7,0.1-30.9-14.5-34.2-14.4c-2.9,0.1-7.8,5.6-7.8,5.6l-8.1,8c0,0,19.9,21.1,50.2,21.4l0,0c0,0-0.1,0,0,0s0,0,0,0
				l0,0C218.3,188.8,238.5,167.7,238.5,167.7z"/>
			<g class="st4">
				<g class="st4">
					<path class="st3" d="M148.5,62.1c0,1.1-0.3,2.2-0.9,3.1c-0.3,0.4-0.6,0.7-1,1c-0.3,0.3-0.6,0.5-1,0.8l-1.1,0.6
						c-0.5,0.3-0.9,0.7-1.2,1.1c-0.3,0.3-0.4,0.7-0.5,1.2c0,0.2-0.1,0.4-0.2,0.6c-0.1,0.2-0.3,0.3-0.5,0.3H138
						c-0.2,0-0.4-0.1-0.4-0.3c-0.1-0.2-0.2-0.4-0.2-0.7v-0.8c0-1,0.4-2,1.1-2.7c0.7-0.8,1.5-1.4,2.5-1.9c0.6-0.2,1-0.6,1.5-1
						c0.3-0.4,0.4-0.8,0.4-1.3c0-0.5-0.3-1-0.8-1.3c-0.5-0.4-1.2-0.6-1.9-0.5c-0.7,0-1.3,0.1-1.9,0.5c-0.7,0.6-1.3,1.3-1.9,2
						c-0.1,0.2-0.3,0.3-0.5,0.3c-0.2,0-0.3-0.1-0.4-0.1l-2.8-2.2c-0.1-0.1-0.2-0.3-0.3-0.4c0-0.2,0-0.3,0.1-0.5
						c1.6-2.9,4.7-4.7,8-4.6c1,0,1.9,0.2,2.8,0.5c1,0.3,1.8,0.8,2.6,1.4c0.8,0.6,1.4,1.4,1.8,2.2C148.3,60.2,148.5,61.1,148.5,62.1z
						 M143,72.5v4.2c0,0.4-0.3,0.7-0.7,0.7h-4.2c-0.4,0-0.7-0.3-0.7-0.7v-4.2c0-0.4,0.3-0.7,0.7-0.7h4.2
						C142.7,71.8,143,72.1,143,72.5z"/>
				</g>
				<g class="st4">
					<path class="st3" d="M277.6,84.4c0,1.6-0.4,3.2-1.3,4.6c-0.4,0.6-0.9,1.1-1.4,1.5c-0.5,0.4-1,0.8-1.5,1.1
						c-0.4,0.2-0.9,0.5-1.6,0.9c-0.7,0.4-1.3,1-1.8,1.7c-0.4,0.5-0.6,1.1-0.7,1.8c0,0.3-0.1,0.6-0.3,0.8c-0.2,0.2-0.4,0.4-0.7,0.4
						h-6.2c-0.3,0-0.5-0.2-0.7-0.5c-0.2-0.3-0.3-0.6-0.3-1v-1.2c0-1.5,0.6-2.9,1.7-4c1-1.2,2.3-2.1,3.7-2.8c0.8-0.3,1.6-0.8,2.2-1.4
						c0.5-0.6,0.7-1.3,0.6-2c0-0.8-0.5-1.5-1.2-1.9c-0.8-0.6-1.8-0.8-2.8-0.8c-1,0-2,0.2-2.8,0.8c-1,0.9-2,1.9-2.8,3
						c-0.2,0.3-0.5,0.4-0.8,0.4c-0.2,0-0.5-0.1-0.6-0.2l-4.2-3.2c-0.2-0.2-0.4-0.4-0.4-0.7c0-0.2,0-0.5,0.1-0.7c2.4-4.4,7-7,12-6.9
						c1.4,0,2.8,0.3,4.2,0.8c1.4,0.5,2.6,1.2,3.8,2.1c1.1,0.9,2.1,2,2.7,3.3C277.2,81.5,277.6,82.9,277.6,84.4z M269.4,99.9v6.2
						c0,0.5-0.5,1-1,1h-6.2c-0.5,0-1-0.5-1-1v-6.2c0-0.5,0.5-1,1-1h6.2C268.9,98.9,269.4,99.3,269.4,99.9z"/>
				</g>
				<g class="st4">
					<path class="st3" d="M206.8,41.9h17.9c1.2,0,2.2,1,2.2,2.2v0c0,1.2-1,2.2-2.2,2.2h-17.9c-1.2,0-2.2-1-2.2-2.2v0
						C204.6,42.9,205.6,41.9,206.8,41.9z"/>
				</g>
				<g class="st4">
					<path class="st3" d="M206.8,53.9h17.9c1.2,0,2.2,1,2.2,2.2v0c0,1.2-1,2.2-2.2,2.2h-17.9c-1.2,0-2.2-1-2.2-2.2v0
						C204.6,54.8,205.6,53.9,206.8,53.9z"/>
				</g>
				<g class="st4">
					<circle class="st3" cx="193.8" cy="56.3" r="4.1"/>
				</g>
				<g class="st4">
					<path class="st3" d="M193.8,48.6c-2.3,0-4.2-1.9-4.2-4.2s1.9-4.2,4.2-4.2c2.3,0,4.2,1.9,4.2,4.2S196.1,48.6,193.8,48.6
						L193.8,48.6z M193.8,42.2c-1.2,0-2.2,1-2.2,2.2s1,2.2,2.2,2.2c1.2,0,2.2-1,2.2-2.2C195.9,43.2,195,42.2,193.8,42.2
						C193.8,42.2,193.8,42.2,193.8,42.2L193.8,42.2z"/>
				</g>
			</g>
			<path class="st5" d="M147,60.6c0,1.1-0.3,2.2-0.9,3.1c-0.3,0.4-0.6,0.7-1,1c-0.3,0.3-0.6,0.5-1,0.8l-1.1,0.6
				c-0.5,0.3-0.9,0.7-1.2,1.1c-0.3,0.3-0.4,0.7-0.5,1.2c0,0.2-0.1,0.4-0.2,0.6c-0.1,0.2-0.3,0.3-0.5,0.3h-4.2
				c-0.2,0-0.4-0.1-0.4-0.3c-0.1-0.2-0.2-0.4-0.2-0.7v-0.8c0-1,0.4-2,1.1-2.7c0.7-0.8,1.5-1.4,2.5-1.9c0.6-0.2,1-0.6,1.5-1
				c0.3-0.4,0.4-0.8,0.4-1.3c0-0.5-0.3-1-0.8-1.3c-0.5-0.4-1.2-0.6-1.9-0.5c-0.7,0-1.3,0.1-1.9,0.5c-0.7,0.6-1.3,1.3-1.9,2
				c-0.1,0.2-0.3,0.3-0.5,0.3c-0.2,0-0.3-0.1-0.4-0.1l-2.8-2.2c-0.1-0.1-0.2-0.3-0.3-0.4c0-0.2,0-0.3,0.1-0.5c1.6-2.9,4.7-4.7,8-4.6
				c1,0,1.9,0.2,2.8,0.5c0.9,0.3,1.8,0.8,2.5,1.4c0.8,0.6,1.4,1.4,1.8,2.2C146.7,58.6,147,59.6,147,60.6z M141.5,71v4.2
				c0,0.4-0.3,0.7-0.7,0.7h-4.2c-0.4,0-0.7-0.3-0.7-0.7V71c0-0.4,0.3-0.7,0.7-0.7h4.2C141.2,70.3,141.5,70.6,141.5,71z"/>
			<path class="st5" d="M276,82.8c0,1.6-0.4,3.2-1.3,4.6c-0.4,0.6-0.9,1.1-1.4,1.6c-0.5,0.4-1,0.8-1.5,1.1c-0.4,0.2-0.9,0.5-1.6,0.9
				c-0.7,0.4-1.3,1-1.8,1.7c-0.4,0.5-0.6,1.1-0.7,1.7c0,0.3-0.1,0.6-0.3,0.8c-0.2,0.2-0.4,0.4-0.7,0.4h-6.2c-0.3,0-0.5-0.2-0.7-0.5
				c-0.2-0.3-0.3-0.6-0.3-1v-1.2c0-1.5,0.6-2.9,1.7-4c1-1.2,2.3-2.1,3.7-2.8c0.8-0.3,1.6-0.8,2.2-1.4c0.5-0.6,0.7-1.3,0.6-2
				c0-0.8-0.5-1.5-1.2-1.9c-0.8-0.6-1.8-0.8-2.8-0.8c-1,0-2,0.2-2.8,0.8c-1,0.9-2,1.9-2.8,3c-0.2,0.3-0.5,0.4-0.8,0.4
				c-0.2,0-0.5-0.1-0.7-0.2l-4.2-3.2c-0.2-0.2-0.4-0.4-0.4-0.7c0-0.2,0-0.5,0.1-0.7c2.4-4.4,7-7,12-6.9c1.4,0,2.8,0.3,4.2,0.8
				c1.4,0.5,2.6,1.2,3.8,2.1c1.1,0.9,2.1,2,2.8,3.3C275.7,80,276,81.4,276,82.8z M267.8,98.3v6.2c0,0.5-0.5,1-1,1h-6.2
				c-0.5,0-1-0.5-1-1v-6.2c0-0.5,0.5-1,1-1h6.2C267.4,97.4,267.8,97.8,267.8,98.3z"/>
			<path class="st5" d="M205.3,40.4h17.9c1.2,0,2.2,1,2.2,2.2v0c0,1.2-1,2.2-2.2,2.2h-17.9c-1.2,0-2.2-1-2.2-2.2v0
				C203.1,41.4,204.1,40.4,205.3,40.4z"/>
			<path class="st5" d="M205.3,52.3h17.9c1.2,0,2.2,1,2.2,2.2v0c0,1.2-1,2.2-2.2,2.2h-17.9c-1.2,0-2.2-1-2.2-2.2v0
				C203.1,53.3,204.1,52.3,205.3,52.3z"/>
			<circle class="st5" cx="192.2" cy="54.8" r="4.1"/>
			<path class="st5" d="M192.2,47c-2.3,0-4.2-1.9-4.2-4.2s1.9-4.2,4.2-4.2c2.3,0,4.2,1.9,4.2,4.2S194.5,47,192.2,47L192.2,47z
				 M192.2,40.6c-1.2,0-2.2,1-2.2,2.2s1,2.2,2.2,2.2c1.2,0,2.2-1,2.2-2.2C194.4,41.6,193.4,40.6,192.2,40.6L192.2,40.6z"/>
		</g>
		<rect class="st6" width="400" height="225"/>
	</g>
</g>
</svg>
